<svg xmlns="http://www.w3.org/2000/svg" xmlns:xlink="http://www.w3.org/1999/xlink" width="600" height="400" viewBox="0 0 600 400"><rect width="100%" height="100%" fill="#DDDDDD"/><path d="M138.66 137.21L138.66 237.70L119.89 237.70L119.89 137.21L138.66 137.21ZM175.56 237.70L158.39 237.70L158.39 166.40L168.89 166.40Q172.22 166.40 173.27 169.52L173.27 169.52L174.38 174.81Q176.26 172.72 178.31 170.98Q180.36 169.25 182.68 168.00Q185.01 166.74 187.69 166.01Q190.36 165.28 193.56 165.28L193.56 165.28Q200.30 165.28 204.65 168.93Q208.99 172.58 211.14 178.63L211.14 178.63Q212.81 175.08 215.31 172.55Q217.82 170.01 220.80 168.41Q223.79 166.81 227.16 166.05Q230.53 165.28 233.94 165.28L233.94 165.28Q239.85 165.28 244.43 167.09Q249.02 168.90 252.15 172.37Q255.28 175.85 256.91 180.85Q258.54 185.86 258.54 192.32L258.54 192.32L258.54 237.70L241.38 237.70L241.38 192.32Q241.38 185.51 238.39 182.07Q235.40 178.63 229.63 178.63L229.63 178.63Q226.99 178.63 224.73 179.53Q222.47 180.44 220.77 182.14Q219.07 183.84 218.09 186.41Q217.12 188.98 217.12 192.32L217.12 192.32L217.12 237.70L199.89 237.70L199.89 192.32Q199.89 185.16 197.00 181.90Q194.12 178.63 188.56 178.63L188.56 178.63Q184.80 178.63 181.57 180.47Q178.34 182.31 175.56 185.51L175.56 185.51L175.56 237.70ZM312.48 219.29L312.48 207.26Q305.04 207.61 299.97 208.55Q294.89 209.49 291.83 210.95Q288.78 212.41 287.46 214.35Q286.13 216.30 286.13 218.59L286.13 218.59Q286.13 223.11 288.81 225.05Q291.49 227.00 295.80 227.00L295.80 227.00Q301.08 227.00 304.93 225.09Q308.79 223.18 312.48 219.29L312.48 219.29ZM276.20 181.83L273.14 176.34Q285.44 165.08 302.75 165.08L302.75 165.08Q309.00 165.08 313.93 167.13Q318.87 169.18 322.27 172.83Q325.68 176.47 327.45 181.55Q329.22 186.62 329.22 192.67L329.22 192.67L329.22 237.70L321.44 237.70Q319.01 237.70 317.69 236.97Q316.37 236.24 315.60 234.02L315.60 234.02L314.07 228.88Q311.36 231.31 308.79 233.15Q306.22 234.99 303.44 236.24Q300.66 237.50 297.50 238.16Q294.34 238.82 290.51 238.82L290.51 238.82Q286.00 238.82 282.17 237.60Q278.35 236.38 275.57 233.95Q272.79 231.52 271.26 227.90Q269.73 224.29 269.73 219.49L269.73 219.49Q269.73 216.78 270.64 214.11Q271.54 211.43 273.59 209.00Q275.64 206.57 278.91 204.41Q282.17 202.26 286.93 200.66Q291.69 199.06 298.02 198.05Q304.34 197.05 312.48 196.84L312.48 196.84L312.48 192.67Q312.48 185.51 309.42 182.07Q306.36 178.63 300.59 178.63L300.59 178.63Q296.42 178.63 293.68 179.60Q290.93 180.57 288.85 181.79Q286.76 183.01 285.06 183.98Q283.35 184.95 281.27 184.95L281.27 184.95Q279.46 184.95 278.21 184.02Q276.96 183.08 276.20 181.83L276.20 181.83ZM371.41 200.31L371.41 200.31Q374.61 200.31 376.97 199.44Q379.33 198.58 380.90 197.05Q382.46 195.52 383.26 193.36Q384.06 191.21 384.06 188.64L384.06 188.64Q384.06 183.35 380.90 180.26Q377.74 177.17 371.41 177.17L371.41 177.17Q365.09 177.17 361.92 180.26Q358.76 183.35 358.76 188.64L358.76 188.64Q358.76 191.14 359.56 193.29Q360.36 195.45 361.92 197.01Q363.49 198.58 365.89 199.44Q368.28 200.31 371.41 200.31ZM390.80 240.90L390.80 240.90Q390.80 238.82 389.55 237.50Q388.30 236.17 386.15 235.45Q383.99 234.72 381.11 234.37Q378.22 234.02 374.99 233.85Q371.76 233.67 368.32 233.53Q364.88 233.39 361.61 232.98L361.61 232.98Q358.76 234.58 356.99 236.73Q355.22 238.89 355.22 241.73L355.22 241.73Q355.22 243.61 356.16 245.24Q357.09 246.88 359.14 248.06Q361.19 249.24 364.46 249.90Q367.73 250.56 372.45 250.56L372.45 250.56Q377.25 250.56 380.72 249.83Q384.20 249.10 386.46 247.82Q388.72 246.53 389.76 244.76Q390.80 242.99 390.80 240.90ZM387.40 168.83L407.90 168.83L407.90 175.22Q407.90 178.28 404.22 178.98L404.22 178.98L397.82 180.16Q399.28 183.84 399.28 188.22L399.28 188.22Q399.28 193.50 397.16 197.78Q395.04 202.05 391.29 205.04Q387.54 208.03 382.43 209.66Q377.32 211.29 371.41 211.29L371.41 211.29Q369.33 211.29 367.38 211.09Q365.43 210.88 363.56 210.53L363.56 210.53Q360.22 212.54 360.22 215.05L360.22 215.05Q360.22 217.20 362.20 218.21Q364.18 219.22 367.45 219.63Q370.72 220.05 374.89 220.16Q379.06 220.26 383.43 220.61Q387.81 220.95 391.98 221.82Q396.15 222.69 399.42 224.57Q402.69 226.44 404.67 229.68Q406.65 232.91 406.65 237.98L406.65 237.98Q406.65 242.71 404.32 247.16Q401.99 251.60 397.58 255.08Q393.16 258.55 386.74 260.67Q380.31 262.79 372.11 262.79L372.11 262.79Q364.04 262.79 358.07 261.23Q352.09 259.67 348.13 257.06Q344.17 254.45 342.22 251.05Q340.28 247.64 340.28 243.96L340.28 243.96Q340.28 238.95 343.30 235.58Q346.32 232.21 351.60 230.20L351.60 230.20Q348.75 228.74 347.09 226.31Q345.42 223.87 345.42 219.91L345.42 219.91Q345.42 218.31 346.01 216.61Q346.60 214.91 347.75 213.24Q348.89 211.57 350.63 210.08Q352.37 208.58 354.73 207.40L354.73 207.40Q349.31 204.48 346.22 199.62Q343.12 194.75 343.12 188.22L343.12 188.22Q343.12 182.94 345.24 178.66Q347.36 174.39 351.15 171.37Q354.94 168.34 360.12 166.74Q365.30 165.15 371.41 165.15L371.41 165.15Q376.00 165.15 380.03 166.08Q384.06 167.02 387.40 168.83L387.40 168.83ZM432.29 193.85L464.68 193.85Q464.68 190.51 463.74 187.56Q462.80 184.61 460.93 182.38Q459.05 180.16 456.17 178.87Q453.28 177.59 449.46 177.59L449.46 177.59Q442.02 177.59 437.75 181.83Q433.47 186.07 432.29 193.85L432.29 193.85ZM476.08 204.20L431.95 204.20Q432.36 209.70 433.89 213.69Q435.42 217.69 437.92 220.29Q440.42 222.90 443.87 224.19Q447.31 225.47 451.48 225.47L451.48 225.47Q455.65 225.47 458.67 224.50Q461.69 223.53 463.95 222.34Q466.21 221.16 467.91 220.19Q469.61 219.22 471.21 219.22L471.21 219.22Q473.37 219.22 474.41 220.82L474.41 220.82L479.34 227.07Q476.50 230.41 472.95 232.67Q469.41 234.92 465.55 236.28Q461.69 237.63 457.70 238.19Q453.70 238.75 449.95 238.75L449.95 238.75Q442.51 238.75 436.12 236.28Q429.72 233.81 425.00 228.98Q420.27 224.15 417.56 217.03Q414.85 209.90 414.85 200.52L414.85 200.52Q414.85 193.22 417.21 186.80Q419.57 180.37 423.99 175.61Q428.40 170.84 434.76 168.06Q441.12 165.28 449.11 165.28L449.11 165.28Q455.85 165.28 461.55 167.44Q467.25 169.59 471.35 173.73Q475.45 177.86 477.78 183.88Q480.11 189.89 480.11 197.60L480.11 197.60Q480.11 201.49 479.28 202.85Q478.44 204.20 476.08 204.20L476.08 204.20Z" fill="#999999"/></svg>